<?xml version="1.0" encoding="utf-8"?>
<!-- Generator: Adobe Illustrator 22.1.0, SVG Export Plug-In . SVG Version: 6.00 Build 0)  -->
<svg version="1.1" id="Layer_1" xmlns="http://www.w3.org/2000/svg" xmlns:xlink="http://www.w3.org/1999/xlink" x="0px" y="0px"
	 viewBox="0 0 1000 1000" style="enable-background:new 0 0 1000 1000;" xml:space="preserve">
<style type="text/css">
	.st0{fill:#FFFFFF;}
</style>
<g id="Logo_5_">
	<g>
		<g>
			<path class="st0" d="M818.3,586.7C789.7,685.1,716.8,764.9,622.8,803c-2.3,0.9-4.1-2.2-2.1-3.7c24.2-18.2,73.9-59.7,79-95
				c6.7-46.8-26.8-98.8-25.7-108.1c1-9.3,10.3-5.7,14.4-10.3c4.1-4.6,13.6-10.8,12.2-27.8c-1.4-17-18.4-32.9-19.9-46.9
				c-0.8-7,1.4-10.4,3.8-12.2c2.8-2.1,5-5,5.6-8.4c1-5.6,3.7-13,10.7-15.4c11.8-4.1,26.3,0,34.5-4.1s9.3-4.6,16.5,12.9
				s19.1,20.6,30.4,32.9c11.3,12.3,8.3,25.7,13.9,34.5c3.9,6.1,8.2,12.7,15.3,16.8C817.6,571.9,820.3,579.6,818.3,586.7z"/>
			<path class="st0" d="M752.6,296.6c-53.5-12.8-144.6,6.1-173.7,9.8c-32.9,4.1-22-22.7-18.5-32.9c3.4-10.3-10.3-9.6-23.7-12.4
				s-23.3-20.3-36-24.4c-12.7-4.1-35.3-14.8-25.4-28.2s18.5-20.6,17.5-30.9c-0.6-6-15.3-9.7-27.5-11.8c-2.4-0.4-2.3-3.9,0.2-4.1
				c10.7-1,21.5-1.6,32.5-1.6c105.6,0,200,49.4,261.1,126.3C762.8,291.2,758.5,298,752.6,296.6z"/>
			<path class="st0" d="M505.1,531.3c-3.6,6.7-14.9,8.2-14.9,13.9s6.2,10.8,3.1,16c-3.1,5.1-8.3,4.1-12.9,5.1c0,0,9.3,6.3,8.9,8.6
				c-0.3,2.2-9.8,8.2-9.8,12.9s4.5,14.1,1.4,20.2c-3.1,6.2-7.2,9.8-24.7,11.3c-17.5,1.6-49.4-14.4-67.4,28.3
				c-16.1,38.2-25.6,121.8,12.7,158.7c2.6,2.5,0.1,6.8-3.3,5.7c-135.4-42.5-233.8-169.1-233.8-318.3c0-79.2,27.7-152,74-209.3
				c2.6-3.2,6.9-4.5,10.9-3.3c6.6,1.9,15.8,5.3,16.6,8.8c1.4,5.5-9.6,24.7,0,34.3c9.6,9.6,19.2,35.7,13.8,74.1
				c8.2-5.5,12.3-11.7,14.9-18.4c2.6-6.7,21.1-11.3,26.8-10.8c5.7,0.5,7.7-16,14.4-19.5c6.7-3.6,27.8-13.4,57.1-6.2
				c29.4,7.2,58.7,9.3,74.1,65.4c16.5,26.8,12.9,77.7,16,84.9s14.4,19.6,19.5,22.7C507.6,519.5,508.7,524.6,505.1,531.3z"/>
		</g>
		<g>
			<path class="st0" d="M131.6,378l-0.1,0.2c5.1,3.6,7.9,9,5.7,16.6c-3.5,11.9-13.2,15-26.3,11.2c-14.2-4.1-20.5-13.7-17.1-25.3
				c2-6.8,6.5-9.5,10.7-10.1l0.1-0.2l-30.4-8.8l-1.8,6.3l-1.4-0.4l4.9-16.9l66.3,19.3l1.8-6.3l1.4,0.4l-4.9,16.7L131.6,378z
				 M112.1,372.5c-6.2-1.8-13.6-0.3-15.7,6.7c-2,6.9,3.5,11.6,17.9,15.7c14,4.1,19.8,2.9,21.6-3.3c1.9-6.6-3.9-13.3-11.9-15.6
				L112.1,372.5z"/>
			<path class="st0" d="M116.7,271.8c1.7-2.9,5.4-3.9,8.4-2.1c2.9,1.7,4,5.5,2.3,8.4c-1.7,3-5.6,4-8.5,2.3
				C115.9,278.6,115,274.7,116.7,271.8z M167,314.6l3.3-5.6l-35.6-20.8l-3.3,5.6l-1.3-0.7l8.8-15.1l36.9,21.5l3.3-5.6l1.3,0.7
				l-12.1,20.7L167,314.6z"/>
			<path class="st0" d="M182.8,219.4l-3.7,3.8l-1.1-1l16.1-16.8l1.1,1l-4.4,4.6l31.2,11.5l-11-24.1c-1.8-3.9-4-4.4-7-1.2l-1.4,1.4
				l-1.1-1l10.8-11.3l1.1,1l-0.7,0.7c-2.1,2.2-2.5,5.2-1.3,7.9l17.2,37.7l-1.8,1.9L182.8,219.4z"/>
			<path class="st0" d="M304.3,164.4c0.3,4.3-1.3,10.3-7.5,14c-5.5,3.3-12.9,4.5-17.1-2.4c-5.5-9.1,4.2-19,14.3-25.2l0.8-0.5
				l-5.4-8.8c-3-4.9-6.1-6.8-11.2-3.6c-4.9,3-5.9,6.4-3.2,10.7c1.7,2.8,4.2,4.5,6.8,2.2l0.4,0.7c0,0-1.5,1.7-3.5,2.9
				c-3.9,2.4-8.1,2.3-10.2-1.3c-2.9-4.7,0.1-10.8,9.3-16.5c11.4-7,18.3-5.4,22.8,1.9l13.2,21.7c1.4,2.3,2.7,3.3,4.4,2.3
				c2.6-1.6,1.8-5.3,0.2-8l1.3-0.8c3.3,5.4,1.7,9.8-2.7,12.5c-4.7,2.9-9.4,2.3-12.4-1.9L304.3,164.4z M295.6,151.5l-1.1,0.7
				c-3.9,2.4-5.8,4.7-6.8,6.9c-1.4,3.2-0.7,6.8,1.8,10.9c3.2,5.2,6.1,6.4,8.9,4.7c1.4-0.9,2.5-2.3,3.4-4.1c1.2-2.8,1.5-6.4,0.4-8.3
				L295.6,151.5z"/>
			<path class="st0" d="M467.6,113c-1.6,4-5.7,8.6-12.8,9.3c-6.4,0.6-13.6-1.6-14.3-9.7c-1-10.6,12.1-15.2,23.9-16.3l1-0.1l-1-10.3
				c-0.5-5.7-2.5-8.7-8.5-8.2c-5.7,0.5-8.1,3.2-7.6,8.2c0.3,3.2,1.8,5.8,5.1,5l0.1,0.8c0,0-2.1,0.9-4.4,1.1
				c-4.6,0.4-8.2-1.5-8.6-5.6c-0.5-5.5,4.8-9.7,15.6-10.7c13.3-1.2,18.8,3.2,19.6,11.7l2.4,25.3c0.3,2.7,1,4.2,2.9,4
				c3-0.3,4-3.9,3.7-7.2l1.5-0.1c0.6,6.3-2.8,9.5-7.9,10c-5.5,0.5-9.5-2.1-10.3-7.1L467.6,113z M465.5,97.6l-1.3,0.1
				c-4.5,0.4-7.2,1.7-9.2,3.2c-2.7,2.2-3.6,5.8-3.2,10.6c0.6,6.1,2.7,8.4,6,8.1c1.7-0.2,3.3-1,4.8-2.2c2.3-2,4.2-5.1,4-7.3
				L465.5,97.6z"/>
			<path class="st0" d="M539.7,119.5l6.4,1l6.6-40.7l-6.4-1l0.2-1.5l17.1,2.8l-1.7,10.3h0.2c2.7-4.9,7.4-10,14.4-8.9
				c5.4,0.9,9.3,4.9,8.3,10.5c-0.9,5.3-5,7.6-9.3,6.9c-1.1-0.2-2.3-0.6-3.5-1.2l0.1-0.8c2.9,1,4.1-2.7,4.6-5.9
				c0.7-4.6-0.3-7.3-3.2-7.8c-2.6-0.4-5.3,1.2-7.6,3.9c-2.7,3.1-4.6,7.7-5.1,10.3l-4,24.7l7.5,1.2l-0.2,1.5l-24.7-4L539.7,119.5z"/>
			<path class="st0" d="M640.1,123c5.8-12.9,15.7-18.2,29.6-12c14.1,6.3,16.7,16.9,10.9,29.6c-6.1,13.5-17.1,17.6-29.6,12
				C637.5,146.5,634.4,135.6,640.1,123z M670.1,135.9c6.3-14,6.6-20.3-0.9-23.7c-7.2-3.2-12.1,1.2-18.5,15.6
				c-6.2,13.9-6.4,20.4,0.9,23.7C659,154.8,663.7,150.1,670.1,135.9z"/>
			<path class="st0" d="M751.1,161.5l-5-4.2l0.9-1.1l13.4,11.3l-21.8,25.8c-4.1,4.8-4.4,7.7-1,10.6c7.1,6,16.8,0,20.2-4l16.1-19.1
				l-5-4.2l1-1.1l13.4,11.3l-27.6,32.6l5,4.2l-1,1.1l-13.2-11.2l6.7-8l-0.1-0.1c-2.8,1.5-10.8,5.4-19.5-1.9
				c-7.2-6.1-7.9-12.2-1.9-19.2L751.1,161.5z"/>
			<path class="st0" d="M797,264.4l3.6,5.4L835,247l-3.6-5.4l1.2-0.8l9.5,14.4l-8.7,5.7l0.1,0.2c3.1-0.6,11.9-2.2,18.1,7.3
				c4.9,7.5,4.4,13.7-3.6,19l-25,16.5l3.6,5.5l-1.2,0.8l-12.9-19.5l1.2-0.8l3.2,4.8l27-17.8c5.2-3.5,6.4-6.1,3.9-9.9
				c-5.1-7.8-16.1-4.8-20.5-1.8L806.7,279l3.3,4.9l-1.2,0.8l-12.9-19.5L797,264.4z"/>
			<path class="st0" d="M867.4,388.9l-0.1-0.2c-6.2-0.2-11.5-3.1-13.9-10.7c-3.6-11.8,2.7-19.8,15.8-23.8
				c14.2-4.4,24.6,0.2,28.2,11.8c2.1,6.8-0.3,11.5-3.4,14.3l0.1,0.2l30.2-9.3l-1.9-6.3l1.4-0.4l5.2,16.8l-66,20.4l1.9,6.3l-1.4,0.4
				l-5.1-16.6L867.4,388.9z M886.7,382.8c6.2-1.9,11.5-7.3,9.4-14.2c-2.1-6.9-9.3-7.7-23.6-3.3c-13.9,4.3-18.1,8.5-16.2,14.7
				c2,6.6,10.6,9,18.6,6.5L886.7,382.8z"/>
		</g>
		<g>
			<path class="st0" d="M162.9,687.6l-3.3-5.5l1.3-0.8l1.3,2.1c4.7,7.7,15.8,5.9,20.8,3.1l0.8,1.3l-13.8,8.4l5.8,9.6l-1.3,0.8
				l-5.8-9.6L141,713.8c-4.6,2.8-6.9,5.2-4.8,8.7c1.2,1.9,4.3,4.5,9.6,1.3l0.8,1.3c-3.7,2.2-9.5,3.7-14.2-4c-5-8.1-1.3-14,5.2-18
				L162.9,687.6z"/>
			<path class="st0" d="M179.6,781.3l4.6,4.5l47.2-48.4l-4.7-4.6l1-1.1l12.6,12.3l-25.4,26l0.1,0.1c2.5-1.1,10.7-4.5,18.9,3.5
				c6.4,6.2,7.2,12.4,0.5,19.3l-20.9,21.4l4.7,4.6l-1,1.1l-16.7-16.3l1-1.1l4.1,4l22.6-23.1c4.4-4.5,5-7.4,1.7-10.5
				c-6.7-6.5-16.8-1.2-20.4,2.5L192,793.4l4.2,4.1l-1,1.1l-16.7-16.3L179.6,781.3z"/>
			<path class="st0" d="M294.8,847.5c-8.4,15.2-6.5,20.3-0.2,23.8c6.4,3.5,14.5,2.7,18.1-3.7l1.3,0.7c-2.9,5.1-7.9,7-13.3,6.5
				c-2.8-0.3-5.1-1.1-7.8-2.6c-11.3-6.2-16.1-15.9-8.1-30.5c7.8-14.2,18.5-15.9,29.4-9.9c10.2,5.6,13.3,13.9,7.6,24.3l-1.9,3.4
				l-24.4-13.4L294.8,847.5z M311,853l2.2-4c4.4-8.1,5.3-13.3,0.1-16.2c-5.6-3.1-10.3,0.3-17.1,12.1L311,853z"/>
			<path class="st0" d="M458,879.9l-5-0.1v-1.5l22.9,0.4v1.5l-6.4-0.1l11.4,30.2l12.4-31.2h2.7l12.9,31.7L518,887
				c1.5-4,0.3-6-3.9-6.1h-2v-1.5l15.6,0.3v1.5h-1.1c-3-0.1-5.5,1.6-6.6,4.4l-14.5,38.2h-2.7l-12.9-32.3l-12.5,31.8l-2.7-0.1
				L458,879.9z"/>
			<path class="st0" d="M588.4,892c-3.9-13.6,0.3-24.1,14.9-28.3c14.8-4.2,23.6,2.2,27.4,15.6c4.1,14.3-1.7,24.5-14.9,28.3
				C601.6,911.7,592.2,905.2,588.4,892z M619.6,882.5c-4.2-14.7-8.1-19.8-15.9-17.5c-7.6,2.2-8.4,8.7-4.1,23.9
				c4.2,14.6,8.3,19.7,15.9,17.5C623.3,904.1,623.9,897.6,619.6,882.5z"/>
			<path class="st0" d="M700.8,871.3l5.6-3.3l-21.2-35.4l-5.6,3.3l-0.8-1.3l14.8-8.9l5.3,8.9l0.2-0.1c-1.1-5.5-0.8-12.5,5.3-16.1
				c4.7-2.8,10.2-2.2,13.2,2.7c2.8,4.6,1.1,9.1-2.6,11.3c-0.9,0.6-2.1,1-3.4,1.4l-0.4-0.7c2.9-1.1,1.4-4.7-0.3-7.5
				c-2.4-4-4.9-5.4-7.5-3.9c-2.3,1.4-3.2,4.3-3.3,7.9c0,4.1,1.4,8.9,2.8,11.2l12.9,21.5l6.5-3.9l0.8,1.3l-21.5,12.9L700.8,871.3z"/>
			<path class="st0" d="M785.8,810.7l4.7-4.6l-46.8-48.7L739,762l-1-1.1l12.7-12.2l47.9,49.8l4.7-4.5l1,1.1L787,811.8L785.8,810.7z"
				/>
			<path class="st0" d="M858.3,709.9l-0.1,0.2c3.9,4.9,5.2,10.8,0.9,17.5c-6.6,10.5-16.8,10.8-28.3,3.5
				c-12.5-7.9-15.9-18.8-9.4-29.1c3.8-6,8.9-7.3,13.1-6.7l0.1-0.2l-26.8-16.9l-3.5,5.6l-1.2-0.8l9.4-14.9l58.4,36.8l3.5-5.6l1.2,0.8
				l-9.3,14.7L858.3,709.9z M841.1,699.3c-5.5-3.5-13-4-16.9,2.1c-3.8,6.1,0.2,12.1,12.9,20.1c12.3,7.8,18.3,8.3,21.7,2.8
				c3.7-5.8-0.1-13.9-7.1-18.3L841.1,699.3z"/>
		</g>
	</g>
</g>
</svg>
